# xmcd
#
# Track frame offsets:
#	150
#	1675
#	33224
#	57555
#	72578
#	120569
#	149309
#	178420
#	201179
#	223941
#	246176
#	264469
#	281322
#	306612
#	319642
#	337536
#	349621
#	354792
#
# Disc length: 4751 seconds
#
# Revision: 1
# Processed by: cddbd v1.5.2PL0 Copyright (c) Steve Scherf et al.
# Submitted via: EasyCDDAExtractor 10.0.3.1
#
DISCID=11128d12
DTITLE=miststueck74 - verkehrsservice
DYEAR=2007
DGENRE=Club
TTITLE0=verkehrsservice
TTITLE1=the air i breathe
TTITLE2=hugsnkisses
TTITLE3=choose live
TTITLE4=keep control
TTITLE5=pulverturm
TTITLE6=the silence
TTITLE7=greece
TTITLE8=dream universe
TTITLE9=up in flames
TTITLE10=emerge
TTITLE11=beachball
TTITLE12=do what you want
TTITLE13=everytime
TTITLE14=reflect
TTITLE15=planet violet
TTITLE16=born slippy
TTITLE17=verkehrsservice
EXTD=meine erste ... ***mst74***
EXTT0=
EXTT1=
EXTT2=
EXTT3=
EXTT4=
EXTT5=
EXTT6=
EXTT7=
EXTT8=
EXTT9=
EXTT10=
EXTT11=
EXTT12=
EXTT13=
EXTT14=
EXTT15=
EXTT16=
EXTT17=
PLAYORDER=
